<?xml version="1.0" encoding="UTF-8" standalone="no"?><svg xmlns="http://www.w3.org/2000/svg" version="1.1" width="313" height="248"><path d="m122.19 86.5c-9.09 18.04-14.219 38.42-14.219 60 1.685 25.681 5.254 42.2 14.219 60h17.625c9.1-18.04 14.25-38.42 14.25-60 0-21.584-5.152-41.961-14.25-60z" fill="#a4bcdc" stroke="#666" stroke-linejoin="round" stroke-linecap="square"/><g fill="none" stroke="#000080"><path d="M33.581 154.53L114.64 104.77 143.34 94.09 293.69 72.44"/><path d="M76.57 230.67L120.75 203.55 152.27 168.26 264.7 16.695"/><path d="M67.975 215.45L114.24 187.04 153.91 152.7 276 26.436"/><path d="m59.38 200.22l50.52-31.01 43.841-31.878 130.46-99.65"/><path d="m50.778 184.99l57.23-35.13 44.33-24.665 137.31-76.37"/><path d="M42.18 169.76L109.15 128.65 149.02 110.17 292.26 60.55"/></g><g transform="translate(-193.5-408.36)"><path d="M208.5 554.36H210.5V555.36H208.5z"/><path d="M214 554.36H216V555.36H214z"/><path d="M219.5 554.36H220.5V555.36H219.5z"/><path d="M224 554.36H226V555.36H224z"/><path d="M229.5 554.36H231.5V555.36H229.5z"/><path d="M235 554.36H236V555.36H235z"/><path d="M239.5 554.36H241.5V555.36H239.5z"/><path d="M245 554.36H247V555.36H245z"/><path d="M250.5 554.36H251.5V555.36H250.5z"/><path d="M255 554.36H257V555.36H255z"/><path d="M260.5 554.36H262.5V555.36H260.5z"/><path d="M266 554.36H267V555.36H266z"/><path d="M270.5 554.36H272.5V555.36H270.5z"/><path d="M276 554.36H278V555.36H276z"/><path d="M281.5 554.36H282.5V555.36H281.5z"/><path d="M286 554.36H288V555.36H286z"/><path d="M291.5 554.36H293.5V555.36H291.5z"/><path d="M297 554.36H298V555.36H297z"/><path d="M301.5 554.36H303.5V555.36H301.5z"/><path d="M307 554.36H309V555.36H307z"/><path d="M312.5 554.36H313.5V555.36H312.5z"/><path d="M317 554.36H319V555.36H317z"/><path d="M322.5 554.36H324.5V555.36H322.5z"/><path d="M328 554.36H329V555.36H328z"/><path d="M332.5 554.36H334.5V555.36H332.5z"/><path d="M338 554.36H340V555.36H338z"/><path d="M343.5 554.36H344.5V555.36H343.5z"/><path d="M348 554.36H350V555.36H348z"/><path d="M353.5 554.36H355.5V555.36H353.5z"/><path d="M359 554.36H360V555.36H359z"/><path d="M363.5 554.36H365.5V555.36H363.5z"/><path d="M369 554.36H371V555.36H369z"/><path d="M374.5 554.36H375.5V555.36H374.5z"/><path d="M379 554.36H381V555.36H379z"/><path d="M384.5 554.36H386.5V555.36H384.5z"/><path d="M390 554.36H391V555.36H390z"/><path d="M394.5 554.36H396.5V555.36H394.5z"/><path d="M400 554.36H402V555.36H400z"/><path d="M405.5 554.36H406.5V555.36H405.5z"/><path d="M410 554.36H412V555.36H410z"/><path d="M415.5 554.36H417.5V555.36H415.5z"/><path d="M421 554.36H422V555.36H421z"/><path d="M425.5 554.36H427.5V555.36H425.5z"/><path d="M431 554.36H433V555.36H431z"/><path d="M436.5 554.36H437.5V555.36H436.5z"/><path d="M441 554.36H443V555.36H441z"/><path d="M446.5 554.36H448.5V555.36H446.5z"/><path d="M452 554.36H453V555.36H452z"/><path d="M456.5 554.36H458.5V555.36H456.5z"/><path d="M462 554.36H464V555.36H462z"/><path d="M467.5 554.36H468.5V555.36H467.5z"/><path d="M472 554.36H474V555.36H472z"/><path d="M477.5 554.36H479.5V555.36H477.5z"/><path d="M483 554.36H484V555.36H483z"/><path d="M487.5 554.36H489.5V555.36H487.5z"/></g></svg>